<?xml version="1.0" encoding="UTF-8" standalone="no"?><!DOCTYPE svg PUBLIC "-//W3C//DTD SVG 1.1//EN" "http://www.w3.org/Graphics/SVG/1.1/DTD/svg11.dtd"><svg width="24px" height="24px" version="1.1" xmlns="http://www.w3.org/2000/svg" xmlns:xlink="http://www.w3.org/1999/xlink" xml:space="preserve" xmlns:serif="http://www.serif.com/" style="fill-rule:evenodd;clip-rule:evenodd;stroke-linecap:round;stroke-linejoin:round;stroke-miterlimit:1.5;"><path d="M8,8l-0,-0.5" style="fill:none;stroke:#0a0a0a;stroke-width:2px;"/><path d="M8,16.5l-0,-6" style="fill:none;stroke:#0a0a0a;stroke-width:2px;"/><path d="M11,16.5l-0,-6l2.896,0c0.558,-0 1.093,0.222 1.488,0.616c0.394,0.395 0.616,0.93 0.616,1.488c-0,1.73 -0,3.896 -0,3.896" style="fill:none;stroke:#0a0a0a;stroke-width:2px;"/><path d="M22,7c-0,-2.76 -2.24,-5 -5,-5l-10,0c-2.76,0 -5,2.24 -5,5l0,10c0,2.76 2.24,5 5,5l10,-0c2.76,-0 5,-2.24 5,-5l-0,-10Z" style="fill:none;stroke:#000;stroke-width:2px;"/></svg>